<svg width="1200" height="900" viewBox="0 0 1200 900" fill="none" xmlns="http://www.w3.org/2000/svg">
  <defs>
    <linearGradient id="blue" x1="0" y1="0" x2="1" y2="1">
      <stop offset="0%" stop-color="#0B6FB8" stop-opacity="0.22"/>
      <stop offset="100%" stop-color="#084E82" stop-opacity="0.12"/>
    </linearGradient>
    <linearGradient id="gold" x1="0" y1="0" x2="1" y2="1">
      <stop offset="0%" stop-color="#F0B347" stop-opacity="0.22"/>
      <stop offset="100%" stop-color="#B9802E" stop-opacity="0.12"/>
    </linearGradient>
    <filter id="soft" x="-20%" y="-20%" width="140%" height="140%">
      <feGaussianBlur stdDeviation="8"/>
    </filter>
  </defs>

  <g opacity="0.95">
    <circle cx="600" cy="450" r="250" fill="url(#gold)" filter="url(#soft)"/>

    <g transform="translate(110 155)">
      <rect x="10" y="18" width="250" height="150" rx="24" fill="#FFFFFF" fill-opacity="0.08" stroke="url(#blue)" stroke-width="4"/>
      <path d="M34 92C63 52 94 52 123 92C152 132 183 132 212 92C228 70 240 61 248 58" stroke="url(#blue)" stroke-width="10" stroke-linecap="round"/>
      <path d="M34 120C63 80 94 80 123 120C152 160 183 160 212 120C228 98 240 89 248 86" stroke="url(#gold)" stroke-width="6" stroke-linecap="round" stroke-dasharray="3 18"/>
      <path d="M26 106H248" stroke="#14233A" stroke-opacity="0.08" stroke-width="3" stroke-dasharray="10 14"/>
    </g>

    <g transform="translate(470 125)">
      <rect x="0" y="0" width="260" height="180" rx="26" fill="#FFFFFF" fill-opacity="0.08" stroke="url(#gold)" stroke-width="4"/>
      <path d="M34 60H95" stroke="url(#blue)" stroke-width="8" stroke-linecap="round"/>
      <path d="M34 120H95" stroke="url(#blue)" stroke-width="8" stroke-linecap="round"/>
      <path d="M95 60V120" stroke="url(#blue)" stroke-width="8" stroke-linecap="round"/>
      <path d="M95 60H134" stroke="url(#blue)" stroke-width="8" stroke-linecap="round"/>
      <path d="M95 120H134" stroke="url(#blue)" stroke-width="8" stroke-linecap="round"/>
      <path d="M134 52L162 68L134 84L162 100L134 116L162 132" stroke="url(#gold)" stroke-width="8" stroke-linecap="round" stroke-linejoin="round"/>
      <path d="M162 92H222" stroke="url(#blue)" stroke-width="8" stroke-linecap="round"/>
      <path d="M222 60V124" stroke="url(#blue)" stroke-width="8" stroke-linecap="round"/>
      <path d="M206 60H238" stroke="url(#blue)" stroke-width="8" stroke-linecap="round"/>
      <path d="M210 124H234" stroke="url(#blue)" stroke-width="8" stroke-linecap="round"/>
    </g>

    <g transform="translate(885 150)">
      <rect x="0" y="0" width="190" height="190" rx="26" fill="#FFFFFF" fill-opacity="0.08" stroke="url(#blue)" stroke-width="4"/>
      <path d="M48 54C48 27 70 6 97 6H142V48C142 75 120 97 93 97H48V54Z" stroke="url(#gold)" stroke-width="10"/>
      <path d="M142 141C142 168 120 190 93 190H48V148C48 121 70 99 97 99H142V141Z" stroke="url(#gold)" stroke-width="10"/>
      <path d="M48 54V141" stroke="url(#gold)" stroke-width="10"/>
      <path d="M142 48V141" stroke="url(#gold)" stroke-width="10"/>
      <path d="M72 97H118" stroke="url(#blue)" stroke-width="6" stroke-linecap="round"/>
    </g>

    <g transform="translate(170 470)">
      <rect x="0" y="0" width="270" height="220" rx="30" fill="#FFFFFF" fill-opacity="0.08" stroke="url(#gold)" stroke-width="4"/>
      <path d="M135 42V84" stroke="url(#blue)" stroke-width="8" stroke-linecap="round"/>
      <path d="M135 84L192 170" stroke="url(#blue)" stroke-width="8" stroke-linecap="round"/>
      <circle cx="192" cy="170" r="24" stroke="url(#gold)" stroke-width="8"/>
      <path d="M56 44H214" stroke="url(#gold)" stroke-width="8" stroke-linecap="round"/>
      <path d="M76 198H214" stroke="url(#gold)" stroke-width="8" stroke-linecap="round"/>
      <path d="M76 44V198" stroke="url(#gold)" stroke-width="8" stroke-linecap="round"/>
    </g>

    <g transform="translate(520 455)">
      <rect x="0" y="0" width="320" height="250" rx="32" fill="#FFFFFF" fill-opacity="0.08" stroke="url(#blue)" stroke-width="4"/>
      <ellipse cx="160" cy="124" rx="100" ry="40" stroke="url(#blue)" stroke-width="8"/>
      <ellipse cx="160" cy="124" rx="100" ry="40" transform="rotate(60 160 124)" stroke="url(#gold)" stroke-width="8"/>
      <ellipse cx="160" cy="124" rx="100" ry="40" transform="rotate(-60 160 124)" stroke="url(#blue)" stroke-width="8"/>
      <circle cx="160" cy="124" r="16" fill="url(#gold)"/>
      <circle cx="255" cy="124" r="10" fill="url(#blue)"/>
      <circle cx="108" cy="46" r="10" fill="url(#blue)"/>
      <circle cx="108" cy="202" r="10" fill="url(#blue)"/>
    </g>
  </g>
</svg>
